<?xml version="1.0" encoding="utf-8"?>
<svg viewBox="0 0 16 16" xmlns="http://www.w3.org/2000/svg">
  <path style="fill: rgb(62, 121, 198);" d="M 13.253 8.011 L 14.57 8.756 L 15.876 8.011 C 15.876 5.838 14.997 3.868 13.576 2.449 L 12.108 2.828 L 11.719 4.3 C 12.668 5.249 13.253 6.564 13.253 8.011 Z" data-original="#ffb14e" class=""/>
  <path style="fill: rgb(251, 207, 98);" d="M 11.719 11.72 L 12.119 13.171 L 13.572 13.572 C 15.111 12.036 15.88 10.023 15.88 8.011 L 13.256 8.011 C 13.256 9.354 12.745 10.694 11.719 11.72 Z" data-original="#ff755c" class=""/>
  <path style="fill: rgb(242, 178, 50);" d="M 8.014 13.256 L 7.264 14.566 L 8.014 15.878 C 10.183 15.878 12.154 14.995 13.576 13.572 L 11.719 11.72 C 10.774 12.668 9.462 13.256 8.014 13.256 Z" data-original="#ff4181"/>
  <path style="fill: rgb(144, 196, 88);" d="M 4.304 11.72 L 2.848 12.118 L 2.451 13.572 C 3.985 15.108 5.998 15.878 8.014 15.878 L 8.014 13.256 C 6.667 13.256 5.324 12.746 4.304 11.72 Z" data-original="#3b8bc0"/>
  <path style="fill: rgb(101, 152, 47);" d="M 2.768 8.011 L 1.456 7.261 L 0.144 8.011 C 0.144 10.186 1.02 12.152 2.445 13.572 L 4.304 11.72 C 3.35 10.771 2.768 9.462 2.768 8.011 Z" data-original="#4eb9ff"/>
  <path style="fill: rgb(230, 86, 100);" d="M 4.304 4.3 L 3.902 2.847 L 2.451 2.449 C 0.91 3.987 0.143 5.998 0.143 8.011 L 2.768 8.011 C 2.768 6.669 3.275 5.325 4.304 4.3 Z" data-original="#85c250"/>
  <path style="fill: rgb(199, 54, 69);" d="M 8.014 2.767 L 8.755 1.456 L 8.014 0.145 C 5.835 0.145 3.869 1.024 2.445 2.449 L 4.304 4.3 C 5.251 3.351 6.563 2.767 8.014 2.767 Z" data-original="#c9d467"/>
  <path style="fill: rgb(78, 144, 229);" d="M 11.719 4.3 L 13.572 2.449 C 12.036 0.912 10.023 0.142 8.014 0.142 L 8.014 2.766 C 9.35 2.766 10.696 3.276 11.719 4.3 Z" data-original="#ffce47" class=""/>
  <g transform="matrix(0.011543, 0, 0, 0.011543, 5.033528, 8.475814)" style=""/>
  <g transform="matrix(0.011543, 0, 0, 0.011543, 5.033528, 8.475814)" style=""/>
  <g transform="matrix(0.011543, 0, 0, 0.011543, 5.033528, 8.475814)" style=""/>
  <g transform="matrix(0.011543, 0, 0, 0.011543, 5.033528, 8.475814)" style=""/>
  <g transform="matrix(0.011543, 0, 0, 0.011543, 5.033528, 8.475814)" style=""/>
  <g transform="matrix(0.011543, 0, 0, 0.011543, 5.033528, 8.475814)" style=""/>
  <g transform="matrix(0.011543, 0, 0, 0.011543, 5.033528, 8.475814)" style=""/>
  <g transform="matrix(0.011543, 0, 0, 0.011543, 5.033528, 8.475814)" style=""/>
  <g transform="matrix(0.011543, 0, 0, 0.011543, 5.033528, 8.475814)" style=""/>
  <g transform="matrix(0.011543, 0, 0, 0.011543, 5.033528, 8.475814)" style=""/>
  <g transform="matrix(0.011543, 0, 0, 0.011543, 5.033528, 8.475814)" style=""/>
  <g transform="matrix(0.011543, 0, 0, 0.011543, 5.033528, 8.475814)" style=""/>
  <g transform="matrix(0.011543, 0, 0, 0.011543, 5.033528, 8.475814)" style=""/>
  <g transform="matrix(0.011543, 0, 0, 0.011543, 5.033528, 8.475814)" style=""/>
  <g transform="matrix(0.011543, 0, 0, 0.011543, 5.033528, 8.475814)" style=""/>
  <text style="fill: rgb(255, 255, 255); font-family: Bitter; font-size: 6.9px; font-weight: 700; text-transform: capitalize; white-space: pre;" x="5.91" y="10.313">P</text>
</svg>