<?xml version="1.0" encoding="utf-8"?>
<svg viewBox="0 0 512 512" style="enable-background:new 0 0 512 512" xmlns="http://www.w3.org/2000/svg">
  <g>
    <g fill="none" fill-rule="evenodd" transform="matrix(31.974228, 0, 0, 31.974228, 95.76973, 3.246696)" style="">
      <path d="M 9.564 12.608 L 9.633 5.106 C 9.633 2.925 7.69 1.141 4.969 1.141 C 2.248 1.141 0.304 2.925 0.304 5.106 L 0.304 12.615 C 0.304 14.795 2.103 14.153 4.824 14.153 C 7.545 14.153 9.564 14.788 9.564 12.608 Z" style="fill: rgb(171, 195, 214);"/>
      <path d="M 4.689 5.579 C 4.689 6.489 3.939 7.227 3.015 7.227 C 2.09 7.227 1.34 6.489 1.34 5.579 C 1.34 4.669 2.09 3.931 3.015 3.931 C 3.939 3.931 4.689 4.669 4.689 5.579" style="" fill="#FFF"/>
      <path d="M 4.689 5.579 C 4.689 6.489 3.939 7.227 3.015 7.227 C 2.09 7.227 1.34 6.489 1.34 5.579 C 1.34 4.669 2.09 3.931 3.015 3.931 C 3.939 3.931 4.689 4.669 4.689 5.579" style="" fill="#FFF"/>
      <path d="M 3.749 5.609 C 3.749 6.054 3.414 6.414 3 6.414 C 2.587 6.414 2.252 6.054 2.252 5.609 C 2.252 5.165 2.587 4.803 3 4.803 C 3.414 4.803 3.749 5.165 3.749 5.609" style="" fill="#000"/>
      <path d="M 8.383 5.579 C 8.383 6.489 7.633 7.227 6.708 7.227 C 5.783 7.227 5.034 6.489 5.034 5.579 C 5.034 4.669 5.783 3.931 6.708 3.931 C 7.633 3.931 8.383 4.669 8.383 5.579" style="" fill="#FFF"/>
      <path d="M 7.567 5.556 C 7.567 6 7.232 6.362 6.819 6.362 C 6.405 6.362 6.07 6 6.07 5.556 C 6.07 5.111 6.405 4.751 6.819 4.751 C 7.232 4.751 7.567 5.111 7.567 5.556" style="" fill="#000"/>
      <path d="M 5.981 7.661 C 5.981 7.969 5.516 8.329 4.944 8.329 C 4.371 8.329 3.908 7.969 3.908 7.661 C 3.908 7.352 4.371 7.103 4.944 7.103 C 5.516 7.103 5.981 7.352 5.981 7.661" style="fill: rgb(242, 211, 186);"/>
      <path d="M 5.602 7.425 C 5.602 7.616 5.3 7.837 4.925 7.837 C 4.552 7.837 4.25 7.616 4.25 7.425 C 4.25 7.236 4.552 7.082 4.925 7.082 C 5.3 7.082 5.602 7.236 5.602 7.425" style="fill: rgb(231, 178, 135);"/>
      <path d="M 5.462 7.336 C 5.462 7.649 5.227 7.683 4.935 7.683 C 4.644 7.683 4.408 7.649 4.408 7.336 C 4.408 7.021 4.644 6.768 4.935 6.768 C 5.227 6.768 5.462 7.021 5.462 7.336" style="" fill="#000"/>
      <path d="M 10.344 2.604 C 10.344 3.144 9.938 3.58 9.438 3.58 C 8.937 3.58 8.531 3.144 8.531 2.604 C 8.531 2.064 8.937 1.627 9.438 1.627 C 9.938 1.627 10.344 2.064 10.344 2.604 M -0.54 2.604 C -0.54 3.144 -0.134 3.58 0.368 3.58 C 0.869 3.58 1.275 3.144 1.275 2.604 C 1.275 2.064 0.869 1.627 0.368 1.627 C -0.134 1.627 -0.54 2.064 -0.54 2.604" style="fill: rgb(171, 195, 214);"/>
      <path d="M 10.139 2.552 C 10.139 2.91 9.828 3.329 9.444 3.329 C 9.062 3.329 8.754 2.91 8.754 2.552 C 8.754 2.193 9.062 1.902 9.444 1.902 C 9.828 1.902 10.139 2.193 10.139 2.552" style="fill: rgb(109, 150, 183);"/>
      <path d="M 1.097 2.546 C 1.097 2.904 0.787 3.323 0.403 3.323 C 0.021 3.323 -0.287 2.904 -0.287 2.546 C -0.287 2.187 0.021 1.897 0.403 1.897 C 0.787 1.897 1.097 2.187 1.097 2.546" style="fill: rgb(109, 150, 183);"/>
      <path d="M 1.088 8.738 C 1.088 9.095 0.777 9.514 0.393 9.514 C 0.01 9.514 -0.299 9.095 -0.299 8.738 C -0.299 8.378 0.01 8.088 0.393 8.088 C 0.777 8.088 1.088 8.378 1.088 8.738" style="fill: rgb(109, 150, 183);"/>
      <path d="M 10.266 8.659 C 10.266 9.016 9.955 9.435 9.571 9.435 C 9.188 9.435 8.879 9.016 8.879 8.659 C 8.879 8.299 9.188 8.009 9.571 8.009 C 9.955 8.009 10.266 8.299 10.266 8.659" style="fill: rgb(109, 150, 183);"/>
      <path d="M 3.35 14.468 C 3.35 14.825 3.039 15.244 2.655 15.244 C 2.272 15.244 1.963 14.825 1.963 14.468 C 1.963 14.108 2.272 13.818 2.655 13.818 C 3.039 13.818 3.35 14.108 3.35 14.468" style="fill: rgb(109, 150, 183);"/>
      <path d="M 7.892 14.492 C 7.892 14.849 7.581 15.268 7.197 15.268 C 6.814 15.268 6.505 14.849 6.505 14.492 C 6.505 14.132 6.814 13.842 7.197 13.842 C 7.581 13.842 7.892 14.132 7.892 14.492" style="fill: rgb(109, 150, 183);"/>
      <g transform="matrix(0.009408, 0, 0, 0.009408, 2.183073, 8.894091)" style=""/>
      <g transform="matrix(0.009408, 0, 0, 0.009408, 2.183073, 8.894091)" style=""/>
      <g transform="matrix(0.009408, 0, 0, 0.009408, 2.183073, 8.894091)" style=""/>
      <g transform="matrix(0.009408, 0, 0, 0.009408, 2.183073, 8.894091)" style=""/>
      <g transform="matrix(0.009408, 0, 0, 0.009408, 2.183073, 8.894091)" style=""/>
      <g transform="matrix(0.009408, 0, 0, 0.009408, 2.183073, 8.894091)" style=""/>
      <g transform="matrix(0.009408, 0, 0, 0.009408, 2.183073, 8.894091)" style=""/>
      <g transform="matrix(0.009408, 0, 0, 0.009408, 2.183073, 8.894091)" style=""/>
      <g transform="matrix(0.009408, 0, 0, 0.009408, 2.183073, 8.894091)" style=""/>
      <g transform="matrix(0.009408, 0, 0, 0.009408, 2.183073, 8.894091)" style=""/>
      <g transform="matrix(0.009408, 0, 0, 0.009408, 2.183073, 8.894091)" style=""/>
      <g transform="matrix(0.009408, 0, 0, 0.009408, 2.183073, 8.894091)" style=""/>
      <g transform="matrix(0.009408, 0, 0, 0.009408, 2.183073, 8.894091)" style=""/>
      <g transform="matrix(0.009408, 0, 0, 0.009408, 2.183073, 8.894091)" style=""/>
      <g transform="matrix(0.009408, 0, 0, 0.009408, 2.183073, 8.894091)" style=""/>
    </g>
  </g>
  <g transform="matrix(0.238198, 0, 0, 0.238198, 197.469162, 304.556976)" style="">
    <path d="M 245.332 7.851 C 108.724 7.851 -2.683 119.117 -2.683 255.522 C -2.683 391.927 108.724 503.223 245.332 503.223 C 381.94 503.223 493.317 391.957 493.317 255.522 C 493.317 119.087 381.909 7.851 245.332 7.851 Z M 245.332 444.614 C 141.044 444.614 55.999 359.677 55.999 255.521 C 55.999 151.365 141.044 66.428 245.332 66.428 C 349.62 66.428 434.665 151.395 434.665 255.521 C 434.665 359.647 349.59 444.614 245.332 444.614 Z" opacity="1" data-original="#ffb703" class="" style="fill: rgb(255, 255, 255);"/>
    <g fill="#fcd227"/>
  </g>
</svg>